<?xml version="1.0" encoding="UTF-8"?>
<svg id="Layer_1" xmlns="http://www.w3.org/2000/svg" version="1.1" xmlns:xlink="http://www.w3.org/1999/xlink" viewBox="0 0 1519.5 847.4">
  <!-- Generator: Adobe Illustrator 29.7.1, SVG Export Plug-In . SVG Version: 2.1.1 Build 8)  -->
  <defs>
    <style>
      .st0 {
        fill: #0e1333;
      }

      .st1 {
        fill: url(#linear-gradient);
      }
    </style>
    <linearGradient id="linear-gradient" x1="785.6" y1="0" x2="785.6" y2="528.3" gradientUnits="userSpaceOnUse">
      <stop offset="0" stop-color="#74a3ff"/>
      <stop offset=".5" stop-color="#4237c4"/>
      <stop offset="1" stop-color="#3e3183"/>
    </linearGradient>
  </defs>
  <g>
    <path class="st0" d="M215.4,610l-89.8,230.1-1.4,4h-32.8l-1.7-4L5.6,624.3l-5.6-14.3h38.5s.3,0,.3,0l-.2.3,80.6,205.6,74.5-192,5.7-14h16Z"/>
    <path class="st0" d="M494.8,726.2c0,66.8-57,121.2-119.8,121.2s-119.1-54.3-119.1-121.1,56.3-121.1,119.1-121.1,119.8,54.3,119.8,121.1ZM459.1,708.9c-10.3-57.8-52.4-95.9-102.7-87.5-50.3,8.4-74.3,62.3-64.1,120.1,10.3,57.8,51,98,101.3,89.6,50.3-8.4,75.7-64.4,65.5-122.2Z"/>
    <path class="st0" d="M739.5,609.7l-88.9,109.9,88.9,124.5h-43.8l-68.4-95.7-77.5,95.7h-18.5l87.3-107.9-90.6-126.8h43.8l70,98,79.3-98h18.3v.2Z"/>
    <path class="st0" d="M839.6,828.8h126.6l-11.5,15.3h-150.1v-234h8.2s156.1,0,156.1,0l-14.2,14.4h-115.1v67.2h0v11.2h124.8l-11.5,14.4h-113.3v17.9h-.1v22.4h0v71.2Z"/>
    <path class="st0" d="M1237.2,610v234.1h-21.6l-165.4-177.7v171.4c0,0,0,6.3,0,6.3h-14.4v-234.1h15.3l171.9,183.9v-183.9h14.3Z"/>
    <path class="st0" d="M1519.5,844.1h-38.7l-1.7-4-14.6-37.6-3.6-8.6h-123.3l-3.6,8.6-15.2,37.6-1.6,4h-15.7l3.3-8.3,85.9-212.1,5.3-13.5h31.6l1.6,4,87.1,221.5,3.2,8.3ZM1343.4,779.5h112.2l-3-8.3-52.6-133.7-55.6,139.5-.9,2.4h0Z"/>
  </g>
  <path class="st1" d="M949.9,0l-161.4,299.5L625.3,0h324.6ZM563.6,125.3l-1.1,1.9v234l223.1,167.1-222-403ZM785.6,528.3l223.1-167.1V127.2s-1.1-1.9-1.1-1.9l-222,403Z"/>
</svg>